<?xml version="1.0" encoding="UTF-8"?>
<svg width="34px" height="34px" viewBox="0 0 34 34" version="1.1" xmlns="http://www.w3.org/2000/svg" xmlns:xlink="http://www.w3.org/1999/xlink">
    <!-- Generator: Sketch 53.2 (72643) - https://sketchapp.com -->
    <title>Artboard Copy 2</title>
    <desc>Created with Sketch.</desc>
    <defs>
        <circle id="path-1" cx="16" cy="16" r="13.1764706"></circle>
        <filter x="-3.8%" y="-3.8%" width="107.6%" height="107.6%" filterUnits="objectBoundingBox" id="filter-2">
            <feOffset dx="1" dy="1" in="SourceAlpha" result="shadowOffsetInner1"></feOffset>
            <feComposite in="shadowOffsetInner1" in2="SourceAlpha" operator="arithmetic" k2="-1" k3="1" result="shadowInnerInner1"></feComposite>
            <feColorMatrix values="0 0 0 0 1   0 0 0 0 0.930652975   0 0 0 0 0.420829388  0 0 0 1 0" type="matrix" in="shadowInnerInner1"></feColorMatrix>
        </filter>
        <path d="M12.0459809,15.2089818 C12.0761592,15.1599666 12.1066722,15.1110982 12.1364679,15.0618384 C12.6639424,14.1896913 13.2182951,13.3363774 13.8396522,12.5304154 C14.2809918,11.9579359 14.7504053,11.4117738 15.2952406,10.9384008 C15.6319366,10.6458752 15.99135,10.389157 16.4024635,10.2150113 C16.8325161,10.0328432 17.2763904,9.9942963 17.7297343,10.0898808 C18.2204783,10.1933409 18.5929482,10.4740775 18.8563268,10.9082188 C19.0590139,11.2422753 19.1730314,11.609938 19.2408011,11.9933031 C19.3402316,12.5551676 19.3486968,13.1209944 19.2950837,13.6881908 C19.2766707,13.8825883 19.2493141,14.0761053 19.2270271,14.2701114 C19.2246358,14.2910969 19.2287967,14.3128162 19.2313793,14.3630543 C19.2756185,14.3073864 19.3044098,14.2730954 19.3311446,14.2372879 C19.8545538,13.537183 20.4087631,12.8642273 21.0218941,12.2438577 C21.4713642,11.7890243 21.9454646,11.363737 22.4760956,11.0086461 C22.7715176,10.8109712 23.0772223,10.6341839 23.4219052,10.5410942 C23.7263186,10.4589131 24.0325971,10.4375852 24.339354,10.5268104 C24.8827067,10.6849112 25.1562722,11.1580396 25.0876417,11.7240621 C25.0428764,12.0936815 24.8909806,12.4204003 24.691163,12.7258891 C24.3743149,13.2103174 24.0540232,13.6923488 23.7374621,14.1769239 C22.9545961,15.3753985 22.2637475,16.6283671 21.632873,17.9163604 C21.2989988,18.5980235 20.9727767,19.2835999 20.6392851,19.9654586 C20.4021153,20.4504739 20.0925845,20.8790387 19.6719058,21.2161769 C19.3151229,21.5020987 18.9154877,21.6910664 18.4620481,21.73744 C17.8656562,21.798391 17.3347383,21.6252726 16.8732639,21.2348634 C16.4516766,20.8782071 16.1792111,20.4176504 15.9943152,19.8976102 C15.863989,19.5311705 15.8008107,19.1505447 15.7644628,18.7641467 C15.7175454,18.2645051 15.715728,17.7643254 15.742128,17.2635586 C15.7441367,17.2253053 15.7423672,17.1868563 15.7423672,17.1377433 C15.6806714,17.1631314 15.6668019,17.2153751 15.6428888,17.255683 C15.3746798,17.7072878 15.1303839,18.1724427 14.9081359,18.6490932 C14.574166,19.3654386 14.2511961,20.087116 13.915074,20.8023852 C13.676326,21.3104406 13.4104127,21.8036741 13.0686471,22.2494577 C12.8283208,22.5628711 12.5540857,22.8384224 12.216481,23.0427012 C11.8706981,23.2519696 11.4955499,23.3597834 11.0959147,23.3857095 C10.2471443,23.4407905 9.57289146,23.0915207 9.02724309,22.4490894 C8.66390794,22.0213562 8.41310769,21.5260193 8.21577706,21.0005983 C7.99702032,20.4181396 7.85483323,19.8147932 7.75291573,19.2007339 C7.60728515,18.3232548 7.55438945,17.4379979 7.53449378,16.5495123 C7.52110246,15.9505196 7.53406334,15.3522117 7.57471556,14.7550289 C7.62306778,14.0441622 7.71475048,13.3394102 7.91251154,12.6531001 C8.01337686,12.3031944 8.14169438,11.96498 8.32219021,11.6490718 C8.52655129,11.2912904 8.78509937,10.9845299 9.14728668,10.7887138 C9.81140039,10.4295138 10.4838837,10.434699 11.1474713,10.7864636 C11.5174543,10.982671 11.7451545,11.3143305 11.8956633,11.7039081 C11.997533,11.9674258 12.050907,12.2433196 12.0815635,12.5240072 C12.1418244,13.0745229 12.1250375,13.6254299 12.0865374,14.1761901 C12.0649678,14.4843204 12.0398591,14.7921572 12.0170939,15.1001896 C12.0146069,15.1336491 12.0167591,15.167451 12.0167591,15.2011061 C12.0265156,15.2037476 12.0362243,15.2063402 12.0459809,15.2089818" id="path-3"></path>
        <filter x="-2.3%" y="-3.0%" width="104.6%" height="112.0%" filterUnits="objectBoundingBox" id="filter-4">
            <feOffset dx="0" dy="0.8" in="SourceAlpha" result="shadowOffsetOuter1"></feOffset>
            <feColorMatrix values="0 0 0 0 0.890196078   0 0 0 0 0.525490196   0 0 0 0 0.0431372549  0 0 0 0.5 0" type="matrix" in="shadowOffsetOuter1"></feColorMatrix>
        </filter>
    </defs>
    <g id="Artboard-Copy-2" stroke="none" stroke-width="1" fill="none" fill-rule="evenodd">
        <g id="Group" transform="translate(1.000000, 1.000000)">
            <g id="Group-Copy-2" fill-rule="nonzero">
                <circle id="Oval-8-Copy-5" stroke="#CA7503" stroke-width="1.2" fill="#FFC323" cx="16" cy="16" r="16"></circle>
                <circle id="Oval-8-Copy-6" stroke="#F2AB00" fill="#FFCE12" cx="16" cy="16" r="13.1764706"></circle>
                <path d="M6.41177567,24.3786142 C4.19087731,22.0907729 2.82352941,18.9697729 2.82352941,15.5294118 C2.82352941,8.51214671 8.51214671,2.82352941 15.5294118,2.82352941 C18.9697729,2.82352941 22.0907729,4.19087731 24.3786142,6.41177567 L6.41177567,24.3786142 Z" id="Combined-Shape-Copy" fill="#FFD933"></path>
                <g id="Oval-8-Copy-6">
                    <use fill="black" fill-opacity="1" filter="url(#filter-2)" xlink:href="#path-1"></use>
                    <use stroke="#F2AB00" stroke-width="1" xlink:href="#path-1"></use>
                </g>
            </g>
            <g id="Fill-1-Copy-4">
                <use fill="black" fill-opacity="1" filter="url(#filter-4)" xlink:href="#path-3"></use>
                <use fill="#FFFFFF" fill-rule="evenodd" xlink:href="#path-3"></use>
            </g>
        </g>
    </g>
</svg>