<svg width="93" height="94" viewBox="0 0 93 94" fill="none" xmlns="http://www.w3.org/2000/svg">
<g opacity="0.4">
<path d="M23.1381 30.8903C27.5172 31.3687 31.8874 31.4856 36.2487 31.2982C42.0841 31.0475 45.1374 24.622 42.1981 19.5747C39.2436 14.5015 31.9608 13.902 27.5803 17.8108C19.5184 25.0045 10.3785 31.0644 3.61875 39.6374C0.093671 44.1039 -1.40612 49.6652 1.64822 54.8981C4.20993 59.2771 10.8112 62.8022 15.869 60.6784C28.5517 55.3538 42.132 52.6505 54.6597 47.1989C60.7174 44.5628 62.0368 36.9747 58.001 31.7442C53.8744 26.396 45.9835 25.8399 41.435 30.8343C32.3896 40.7664 24.3787 51.3678 17.117 62.8898C14.1502 67.5862 15.234 74.297 19.0875 78.1505C23.3023 82.3653 29.203 82.4638 34.3483 80.1211C47.4772 74.1278 60.7854 68.1013 73.4869 61.1214C79.0063 58.0883 79.8792 50.651 75.426 46.1978C71.0447 41.8164 63.6102 42.5004 59.4495 47.0918C51.2624 56.1264 41.6529 64.7424 38.0047 77.22C35.6291 85.3539 42.1428 92.842 50.1454 93.1595C55.5206 93.3784 60.863 89.4264 65.3405 86.8538C71.285 83.4381 77.6017 79.6503 83.7432 77.1215C90.027 74.5379 94.4936 68.7576 92.534 61.6308C90.9028 55.6863 83.371 50.2345 77.0433 52.84C69.9384 55.763 63.151 59.1348 56.4731 62.9117C54.0756 64.2691 51.7 65.6595 49.3025 67.0279C48.4158 67.5315 47.4852 67.9913 46.6204 68.5277C45.215 69.396 45.5493 69.3416 46.4565 69.0332C48.7634 68.2491 51.0004 69.1008 52.4774 71.0386C56.5437 76.3736 66.8162 75.5983 71.3615 70.6652C71.9454 70.0316 72.5287 69.4092 73.1022 68.8014C78.6307 62.9445 84.2468 57.1971 88.6695 50.4206C95.5993 39.8125 81.9478 26.7084 71.4492 33.2003C59.3529 40.6744 46.4532 46.9788 33.4987 52.9752C27.7731 55.6254 26.4038 63.1559 30.865 67.6171C34.9664 71.7185 41.8023 70.9403 45.1577 66.2093C51.933 56.6564 59.2473 48.1806 68.0664 39.5279C78.0943 29.6861 65.023 11.8746 52.8057 19.7568C42.5184 26.3948 30.6791 29.1169 19.1669 32.8155C13.8028 34.5389 11.6921 40.7569 14.5273 45.6256C17.8419 51.3172 26.0454 52.0163 31.0135 47.692C38.7924 40.921 47.4077 35.0295 53.8566 26.8507C61.8373 16.7353 54.4697 3.75161 41.6064 5.80973C37.4136 6.47752 28.8964 6.37899 23.149 5.74404C16.3835 4.99962 10.5595 12.0607 10.5595 18.3336C10.5485 25.7232 16.3506 30.1459 23.1381 30.8903Z" fill="#D7CAFF"/>
</g>
<path d="M88.4945 66.0207L88.4507 71.5054C88.4179 75.534 84.3892 79.9896 79.0906 83.033C68.4278 89.1417 51.087 89.0432 40.4242 82.8031C35.0599 79.6612 32.3997 75.5559 32.4326 71.4835L32.4763 65.9988C32.4435 70.0822 35.1037 74.1875 40.468 77.3185C51.1308 83.5585 68.4716 83.657 79.1344 77.5483C84.433 74.505 88.4616 70.0493 88.4945 66.0207Z" fill="#322864"/>
<path d="M79.1453 55.1389C68.4825 48.8989 51.1417 48.8004 40.4789 54.909C29.8161 61.0177 29.8161 71.0675 40.4789 77.3075C51.1417 83.5476 68.4825 83.6461 79.1453 77.5374C89.7972 71.4287 89.7972 61.379 79.1453 55.1389Z" fill="#FFAF0A" stroke="#322864" stroke-width="2.5" stroke-miterlimit="10"/>
<path d="M75.7844 57.0657C84.5862 62.2219 84.5862 70.5201 75.7844 75.5778C66.9717 80.6246 52.6415 80.537 43.8397 75.3917C35.038 70.2355 35.027 61.9373 43.8397 56.8905C52.6415 51.8328 66.9827 51.9094 75.7844 57.0657Z" fill="#FFAF0A" stroke="#EBEBEB" stroke-miterlimit="10"/>
<path d="M75.872 68.5167C76.3318 68.9983 76.1019 69.5129 75.3356 69.8522C74.8429 70.0712 74.2737 70.1916 73.6716 70.2573C72.7191 70.3668 71.7667 70.4762 70.8143 70.5857C68.4496 70.8594 66.1506 71.2316 63.8626 71.6695C62.6474 71.8994 61.4432 72.1403 60.239 72.3811C59.3851 72.5453 58.5093 72.622 57.6007 72.5563C56.8453 72.5015 56.1337 72.3483 55.5426 72.0746C55.5207 72.0636 55.4988 72.0527 55.4659 72.0417C55.2251 71.9104 55.1922 71.8885 55.1594 71.8666C55.1156 71.8447 55.0828 71.8228 55.0609 71.8009C55.0171 71.7681 54.9842 71.7462 54.9623 71.7243C54.9186 71.6914 54.8967 71.6695 54.8638 71.6476C54.831 71.6257 54.8091 71.6038 54.7872 71.5819C54.7543 71.5491 54.7324 71.5272 54.7106 71.5053C54.6777 71.4725 54.6558 71.4506 54.6339 71.4287C54.6011 71.3958 54.5792 71.3739 54.5682 71.3411C54.5463 71.3192 54.5244 71.2864 54.5135 71.2645C54.4916 71.2316 54.4697 71.2097 54.4588 71.1769C54.4369 71.1331 54.4259 71.1112 54.404 71.0893C54.3821 71.0565 54.3712 71.0236 54.3602 71.0017C54.3493 70.9689 54.3383 70.947 54.3274 70.9142C54.3164 70.8704 54.3055 70.8485 54.2945 70.8266C54.2836 70.7828 54.2726 70.7609 54.2726 70.728C54.2617 70.6842 54.2617 70.6624 54.2507 70.6295C54.1741 70.0931 54.404 69.5895 54.7981 69.1078C55.0828 68.7684 55.455 68.4619 55.871 68.1773C56.4074 67.8051 56.9986 67.4657 57.6335 67.1373C57.6773 67.1154 57.7211 67.0825 57.7868 67.0497C57.6773 67.0278 57.6007 67.0497 57.524 67.0606C56.6701 67.1811 55.8272 67.3234 54.9952 67.4985C53.7472 67.7503 52.4992 68.024 51.2512 68.2758C50.3644 68.4619 49.4667 68.6042 48.5252 68.6699C47.8574 68.7137 47.2115 68.7137 46.5656 68.6152C45.9088 68.5167 45.3395 68.3306 44.825 68.0678C44.7921 68.0459 44.7593 68.035 44.7265 68.0131C44.6717 67.9802 44.6498 67.9693 44.6279 67.9583C44.5185 67.8926 44.4966 67.8817 44.4747 67.8598C44.4309 67.8379 44.409 67.816 44.3871 67.7941C44.3433 67.7613 44.3324 67.7503 44.3105 67.7394C43.7084 67.1044 43.6974 67.0935 43.6974 67.0716C43.6646 67.0169 43.6427 66.9731 43.6208 66.9293C43.6098 66.8964 43.5989 66.8855 43.5879 66.8636C43.4785 66.1192 43.4785 66.0973 43.4785 66.0863C43.4785 66.0425 43.4894 66.0206 43.4894 65.9878C43.566 65.4404 43.8507 64.9259 44.2448 64.4333C44.6827 63.8859 45.2301 63.3714 45.8322 62.8787C46.708 62.1781 47.6932 61.5322 48.7332 60.9191C49.4339 60.5031 50.1564 60.0981 50.9227 59.7259C51.8204 59.277 52.7728 58.861 53.8238 58.5216C54.3602 58.3465 54.9186 58.2151 55.5097 58.1275C56.1775 58.018 56.8563 57.9962 57.5131 58.1166C57.6116 58.1385 57.6992 58.1494 57.7868 58.1713C57.9838 58.2151 58.0167 58.226 58.0495 58.237C58.1809 58.2698 58.2028 58.2808 58.2356 58.2917C58.2685 58.3027 58.3013 58.3136 58.3232 58.3246C58.367 58.3355 58.3998 58.3465 58.4217 58.3574C58.4655 58.3684 58.4984 58.3793 58.5203 58.3903C58.5531 58.4012 58.575 58.4122 58.5969 58.4231C59.8449 59.4193 59.8668 59.4631 59.8887 59.5069C60.0967 59.901 59.9653 60.2842 59.6807 60.6564C59.4946 60.9082 59.2209 61.1271 58.9253 61.3461C58.3451 61.7621 57.6664 62.1343 56.9657 62.4737C56.5716 62.6707 56.1775 62.8678 55.7834 63.0539L55.663 63.1196C55.7834 63.1305 55.8819 63.1196 55.9695 63.1086C57.6445 62.8787 59.3085 62.6926 61.0163 62.5722C62.2205 62.4846 63.4247 62.4408 64.6399 62.4956C65.3843 62.5284 66.1178 62.605 66.8184 62.7692C66.8622 62.7802 66.8951 62.7911 66.9389 62.8021C67.0045 62.824 67.0483 62.8349 67.0812 62.8459C67.1359 62.8568 67.1687 62.8678 67.2016 62.8787C67.2673 62.9006 67.3001 62.9116 67.333 62.9225C67.3877 62.9444 67.4205 62.9553 67.4424 62.9663C67.4972 62.9882 67.53 62.9991 67.5629 63.0101C67.6176 63.032 67.6395 63.0429 67.6723 63.0539C67.7271 63.0758 67.749 63.0867 67.7818 63.1086C67.8365 63.1305 67.8584 63.1524 67.8913 63.1634C67.9351 63.1852 67.957 63.1962 67.9898 63.2181C68.0336 63.2509 68.0664 63.2619 68.0883 63.2728C68.1321 63.2947 68.154 63.3166 68.1869 63.3385C68.2307 63.3713 68.2526 63.3823 68.2745 63.3932C68.3182 63.4261 68.3511 63.448 68.373 63.4589C68.4058 63.4918 68.4277 63.5027 68.4496 63.5246C68.4934 63.5575 68.5153 63.5794 68.5372 63.6013C68.997 64.0173 69.1064 64.4661 68.9094 64.9478C68.7561 65.32 68.4496 65.6484 68.0774 65.955C67.53 66.4038 66.8622 66.7979 66.1178 67.1482C65.866 67.2686 65.6033 67.3781 65.3515 67.4985C65.3296 67.5095 65.3077 67.5314 65.242 67.5642C65.3624 67.5533 65.439 67.5533 65.5047 67.5423C66.9717 67.4329 68.4277 67.3562 69.8947 67.3562C70.9675 67.3562 72.0404 67.4 73.0913 67.5204C73.6825 67.5971 74.2517 67.6847 74.7772 67.8598C74.8101 67.8708 74.8429 67.8817 74.8648 67.8927C75.8391 68.4838 75.8501 68.4948 75.872 68.5167Z" fill="#EBEBEB"/>
<path d="M76.2552 57.4926L76.2114 62.9773C76.1786 67.006 72.4784 71.4397 67.1798 74.4721C56.517 80.5808 39.1762 80.4823 28.5134 74.2422C23.1491 71.1003 19.2409 67.0497 19.2847 62.9663L19.2628 57.4926C19.2299 61.576 23.2039 65.6156 28.5681 68.7575C39.2309 74.9976 56.5717 75.0961 67.2345 68.9874C72.5221 65.955 76.2224 61.5213 76.2552 57.4926Z" fill="#322864"/>
<path d="M67.2345 46.5889C56.5717 40.3489 39.2309 40.2504 28.5681 46.3591C17.9053 52.4677 17.9053 62.5175 28.5681 68.7575C39.2309 74.9976 56.5717 75.0961 67.2345 68.9874C77.8864 62.8788 77.8864 52.829 67.2345 46.5889Z" fill="#FFAF0A" stroke="#322864" stroke-width="2.5" stroke-miterlimit="10"/>
<path d="M63.8736 48.5158C72.6753 53.672 72.6753 61.9702 63.8736 67.0279C55.0609 72.0747 40.7307 71.9871 31.9289 66.8418C23.1272 61.6855 23.1162 53.3874 31.9289 48.3406C40.7307 43.2719 55.0609 43.3595 63.8736 48.5158Z" fill="#FFAF0A" stroke="#EBEBEB" stroke-miterlimit="10"/>
<path d="M63.9503 59.9558C64.4101 60.4375 64.1802 60.952 63.4139 61.2914C62.9212 61.5103 62.352 61.6308 61.7498 61.6964C60.7974 61.8059 59.845 61.9154 58.8926 62.0249C56.5279 62.2986 54.2289 62.6708 51.9409 63.1087C50.7258 63.3386 49.5215 63.5794 48.3173 63.8203C47.4634 63.9845 46.5876 64.0611 45.679 63.9954C44.9236 63.9407 44.212 63.7874 43.6209 63.5137C43.599 63.5028 43.5771 63.4918 43.5442 63.4809C43.3034 63.3495 43.2705 63.3276 43.2377 63.3057C43.1939 63.2838 43.1611 63.2619 43.1392 63.24C43.0954 63.2072 43.0625 63.1853 43.0406 63.1634C42.9969 63.1306 42.975 63.1087 42.9421 63.0868C42.9093 63.0649 42.8874 63.043 42.8655 63.0211C42.8326 62.9883 42.8107 62.9664 42.7888 62.9445C42.756 62.9116 42.7341 62.8897 42.7122 62.8678C42.6794 62.835 42.6575 62.8131 42.6465 62.7802C42.6246 62.7584 42.6027 62.7255 42.5918 62.7036C42.5699 62.6708 42.548 62.6489 42.5371 62.616C42.5152 62.5722 42.5042 62.5503 42.4823 62.5285C42.4604 62.4956 42.4495 62.4628 42.4385 62.4409C42.4276 62.408 42.4166 62.3861 42.4057 62.3533C42.3947 62.3095 42.3838 62.2876 42.3729 62.2657C42.3619 62.2219 42.351 62.2 42.351 62.1672C42.34 62.1234 42.34 62.1015 42.3291 62.0687C42.2524 61.5322 42.4823 61.0287 42.8764 60.547C43.1611 60.2076 43.5333 59.9011 43.9493 59.6164C44.4857 59.2442 45.0769 58.9048 45.7118 58.5764C45.7556 58.5545 45.7994 58.5217 45.8651 58.4888C45.7556 58.467 45.679 58.4888 45.6023 58.4998C44.7484 58.6202 43.9055 58.7625 43.0735 58.9377C41.8255 59.1895 40.5775 59.4632 39.3295 59.715C38.4427 59.9011 37.545 60.0434 36.6035 60.1091C35.9357 60.1529 35.2899 60.1529 34.644 60.0543C33.9871 59.9558 33.4178 59.7697 32.9033 59.507C32.8705 59.4851 32.8376 59.4741 32.8048 59.4522C32.75 59.4194 32.7281 59.4084 32.7062 59.3975C32.5968 59.3318 32.5749 59.3209 32.553 59.299C32.5092 59.2771 32.4873 59.2552 32.4654 59.2333C32.4216 59.2004 32.4107 59.1895 32.3888 59.1785C31.7867 58.5436 31.7757 58.5326 31.7757 58.5107C31.7429 58.456 31.721 58.4122 31.6991 58.3684C31.6881 58.3356 31.6772 58.3246 31.6662 58.3027C31.5568 57.5583 31.5568 57.5364 31.5568 57.5255C31.5568 57.4817 31.5677 57.4598 31.5677 57.4269C31.6443 56.8796 31.929 56.365 32.3231 55.8724C32.761 55.325 33.3084 54.8105 33.9105 54.3179C34.7863 53.6172 35.7715 52.9713 36.8115 52.3583C37.5122 51.9423 38.2347 51.5372 39.001 51.165C39.8987 50.7162 40.8511 50.3002 41.9021 49.9608C42.4385 49.7856 42.9969 49.6543 43.588 49.5667C44.2558 49.4572 44.9346 49.4353 45.5914 49.5557C45.6899 49.5776 45.7775 49.5886 45.8651 49.6105C46.0621 49.6543 46.095 49.6652 46.1278 49.6761C46.2592 49.709 46.2811 49.7199 46.3139 49.7309C46.3468 49.7418 46.3796 49.7528 46.4015 49.7637C46.4453 49.7747 46.4782 49.7856 46.5 49.7966C46.5438 49.8075 46.5767 49.8185 46.5986 49.8294C46.6314 49.8404 46.6533 49.8513 46.6752 49.8622C47.9232 50.8585 47.9451 50.9023 47.967 50.946C48.175 51.3402 48.0436 51.7233 47.759 52.0955C47.5729 52.3473 47.2992 52.5663 47.0036 52.7852C46.4234 53.2012 45.7447 53.5734 45.044 53.9128C44.6499 54.1099 44.2558 54.3069 43.8617 54.493L43.7413 54.5587C43.8617 54.5697 43.9602 54.5587 44.0478 54.5478C45.7228 54.3179 47.3868 54.1318 49.0946 54.0113C50.2988 53.9238 51.503 53.88 52.7182 53.9347C53.4626 53.9675 54.1961 54.0442 54.8967 54.2084C54.9405 54.2193 54.9734 54.2303 55.0172 54.2412C55.0829 54.2631 55.1266 54.2741 55.1595 54.285C55.2142 54.296 55.2471 54.3069 55.2799 54.3179C55.3456 54.3398 55.3784 54.3507 55.4113 54.3617C55.466 54.3835 55.4988 54.3945 55.5207 54.4054C55.5755 54.4273 55.6083 54.4383 55.6412 54.4492C55.6959 54.4711 55.7178 54.4821 55.7506 54.493C55.8054 54.5149 55.8273 54.5259 55.8601 54.5478C55.9148 54.5697 55.9367 54.5916 55.9696 54.6025C56.0134 54.6244 56.0353 54.6353 56.0681 54.6572C56.1119 54.6901 56.1447 54.701 56.1666 54.712C56.2104 54.7339 56.2323 54.7558 56.2652 54.7777C56.309 54.8105 56.3309 54.8214 56.3528 54.8324C56.3965 54.8652 56.4294 54.8871 56.4513 54.8981C56.4841 54.9309 56.506 54.9419 56.5279 54.9638C56.5717 54.9966 56.5936 55.0185 56.6155 55.0404C57.0753 55.4564 57.1848 55.9052 56.9877 56.3869C56.8344 56.7591 56.5279 57.0876 56.1557 57.3941C55.6083 57.8429 54.9405 58.2371 54.1961 58.5874C53.9443 58.7078 53.6816 58.8173 53.4298 58.9377C53.4079 58.9486 53.386 58.9705 53.3203 59.0034C53.4407 58.9924 53.5174 58.9924 53.583 58.9815C55.05 58.872 56.506 58.7954 57.973 58.7954C59.0458 58.7954 60.1187 58.8392 61.1696 58.9596C61.7608 59.0362 62.3301 59.1238 62.8555 59.299C62.8884 59.3099 62.9212 59.3209 62.9431 59.3318C63.9284 59.923 63.9393 59.9449 63.9503 59.9558Z" fill="#EBEBEB"/>
<path d="M89.6988 47.0378V52.413C89.6659 56.4417 85.6153 61.2038 80.3168 64.2472C69.654 70.3559 52.3132 70.2573 41.6504 64.0173C36.2861 60.8754 32.6406 55.0951 32.6735 51.0117L32.4436 45.6146C32.4107 49.698 36.3299 55.3907 41.6942 58.5326C52.357 64.7727 69.6978 64.8712 80.3606 58.7625C85.6591 55.7191 89.6659 51.0665 89.6988 47.0378Z" fill="#322864"/>
<path d="M80.3715 36.3531C69.7087 30.1131 52.3679 30.0145 41.7051 36.1232C31.0422 42.2319 31.0422 52.2817 41.7051 58.5217C52.3679 64.7618 69.7087 64.8603 80.3715 58.7516C91.0234 52.6429 91.0234 42.5932 80.3715 36.3531Z" fill="#FFAF0A" stroke="#322864" stroke-width="2.5" stroke-miterlimit="10"/>
<path d="M77.3171 37.3602C86.1188 42.5165 86.1188 50.8147 77.3171 55.8724C68.5044 60.9192 54.1741 60.8316 45.3724 55.6863C36.5706 50.53 36.5597 42.2319 45.3724 37.1851C54.1741 32.1274 68.5044 32.204 77.3171 37.3602Z" fill="#FFAF0A" stroke="#EBEBEB" stroke-miterlimit="10"/>
<path d="M77.0873 49.72C77.5471 50.2017 77.3171 50.7162 76.5508 51.0556C76.0582 51.2745 75.4889 51.3949 74.8868 51.4606C73.9344 51.5701 72.982 51.6796 72.0295 51.789C69.6649 52.0627 67.3659 52.4349 65.0779 52.8728C63.8627 53.1027 62.6585 53.3436 61.4543 53.5844C60.6004 53.7486 59.7246 53.8253 58.816 53.7596C58.0606 53.7048 57.349 53.5516 56.7578 53.2779C56.7359 53.2669 56.714 53.256 56.6812 53.245C56.4403 53.1137 56.4075 53.0918 56.3747 53.0699C56.3309 53.048 56.298 53.0261 56.2761 53.0042C56.2323 52.9714 56.1995 52.9495 56.1776 52.9276C56.1338 52.8947 56.1119 52.8728 56.0791 52.8509C56.0462 52.829 56.0243 52.8071 56.0024 52.7852C55.9696 52.7524 55.9477 52.7305 55.9258 52.7086C55.893 52.6758 55.8711 52.6539 55.8492 52.632C55.8163 52.5991 55.7945 52.5773 55.7835 52.5444C55.7616 52.5225 55.7397 52.4897 55.7288 52.4678C55.7069 52.4349 55.685 52.413 55.674 52.3802C55.6521 52.3364 55.6412 52.3145 55.6193 52.2926C55.5974 52.2598 55.5864 52.2269 55.5755 52.205C55.5646 52.1722 55.5536 52.1503 55.5427 52.1175C55.5317 52.0737 55.5208 52.0518 55.5098 52.0299C55.4989 51.9861 55.4879 51.9642 55.4879 51.9313C55.477 51.8876 55.477 51.8657 55.466 51.8328C55.3894 51.2964 55.6193 50.7928 56.0134 50.3111C56.298 49.9718 56.6702 49.6652 57.0863 49.3806C57.6227 49.0084 58.2138 48.669 58.8488 48.3406C58.8926 48.3187 58.9364 48.2858 59.0021 48.253C58.8926 48.2311 58.8159 48.253 58.7393 48.264C57.8854 48.3844 57.0425 48.5267 56.2105 48.7019C54.9624 48.9536 53.7144 49.2273 52.4664 49.4791C51.5797 49.6652 50.682 49.8075 49.7405 49.8732C49.0727 49.917 48.4268 49.917 47.7809 49.8185C47.1241 49.72 46.5548 49.5339 46.0403 49.2711C46.0074 49.2492 45.9746 49.2383 45.9417 49.2164C45.887 49.1835 45.8651 49.1726 45.8432 49.1616C45.7337 49.096 45.7118 49.085 45.6899 49.0631C45.6462 49.0412 45.6243 49.0193 45.6024 48.9974C45.5586 48.9646 45.5476 48.9536 45.5257 48.9427C44.9236 48.3077 44.9127 48.2968 44.9127 48.2749C44.8798 48.2202 44.8579 48.1764 44.836 48.1326C44.8251 48.0997 44.8142 48.0888 44.8032 48.0669C44.6937 47.3225 44.6937 47.3006 44.6937 47.2896C44.6937 47.2458 44.7047 47.2239 44.7047 47.1911C44.7813 46.6437 45.0659 46.1292 45.46 45.6366C45.8979 45.0892 46.4453 44.5747 47.0474 44.082C47.9232 43.3814 48.9085 42.7355 49.9485 42.1224C50.6491 41.7064 51.3717 41.3014 52.138 40.9292C53.0357 40.4803 53.9881 40.0643 55.0391 39.7249C55.5755 39.5498 56.1338 39.4184 56.725 39.3308C57.3928 39.2214 58.0715 39.1995 58.7284 39.3199C58.8269 39.3418 58.9145 39.3527 59.0021 39.3746C59.1991 39.4184 59.2319 39.4294 59.2648 39.4403C59.3962 39.4731 59.418 39.4841 59.4509 39.495C59.4837 39.506 59.5166 39.5169 59.5385 39.5279C59.5823 39.5388 59.6151 39.5498 59.637 39.5607C59.6808 39.5717 59.7136 39.5826 59.7355 39.5936C59.7684 39.6045 59.7903 39.6155 59.8122 39.6264C61.0602 40.6226 61.0821 40.6664 61.104 40.7102C61.312 41.1043 61.1806 41.4875 60.896 41.8597C60.7099 42.1115 60.4362 42.3304 60.1406 42.5494C59.5604 42.9654 58.8816 43.3376 58.181 43.677C57.7869 43.874 57.3928 44.0711 56.9987 44.2572L56.8782 44.3229C56.9987 44.3338 57.0972 44.3229 57.1848 44.3119C58.8597 44.082 60.5238 43.8959 62.2316 43.7755C63.4358 43.6879 64.64 43.6441 65.8552 43.6989C66.5996 43.7317 67.3331 43.8083 68.0337 43.9726C68.0775 43.9835 68.1103 43.9944 68.1541 44.0054C68.2198 44.0273 68.2636 44.0382 68.2964 44.0492C68.3512 44.0601 68.384 44.0711 68.4169 44.082C68.4825 44.1039 68.5154 44.1149 68.5482 44.1258C68.603 44.1477 68.6358 44.1587 68.6577 44.1696C68.7124 44.1915 68.7453 44.2024 68.7781 44.2134C68.8329 44.2353 68.8548 44.2462 68.8876 44.2572C68.9423 44.2791 68.9642 44.29 68.9971 44.3119C69.0518 44.3338 69.0737 44.3557 69.1066 44.3667C69.1503 44.3886 69.1722 44.3995 69.2051 44.4214C69.2489 44.4542 69.2817 44.4652 69.3036 44.4761C69.3474 44.498 69.3693 44.5199 69.4021 44.5418C69.4459 44.5747 69.4678 44.5856 69.4897 44.5966C69.5335 44.6294 69.5663 44.6513 69.5882 44.6622C69.6211 44.6951 69.643 44.706 69.6649 44.7279C69.7087 44.7608 69.7306 44.7827 69.7524 44.8046C70.2122 45.2206 70.3217 45.6694 70.1247 46.1511C69.9714 46.5233 69.6649 46.8517 69.2927 47.1583C68.7453 47.6071 68.0775 48.0012 67.3331 48.3515C67.0813 48.472 66.8185 48.5814 66.5667 48.7019C66.5448 48.7128 66.523 48.7347 66.4573 48.7675C66.5777 48.7566 66.6543 48.7566 66.72 48.7456C68.187 48.6362 69.643 48.5595 71.1099 48.5595C72.1828 48.5595 73.2556 48.6033 74.3066 48.7237C74.8978 48.8004 75.467 48.888 75.9925 49.0631C76.0254 49.0741 76.0582 49.085 76.0801 49.096C77.0653 49.6871 77.0763 49.709 77.0873 49.72Z" fill="#EBEBEB"/>
<path d="M54.4369 52.3364C68.3369 52.3364 79.6051 41.0682 79.6051 27.1682C79.6051 13.2682 68.3369 2 54.4369 2C40.5369 2 29.2687 13.2682 29.2687 27.1682C29.2687 41.0682 40.5369 52.3364 54.4369 52.3364Z" fill="#FF500A" stroke="#FF500A" stroke-miterlimit="10"/>
<path d="M54.4369 47.3881C65.6041 47.3881 74.6569 38.3354 74.6569 27.1682C74.6569 16.001 65.6041 6.94824 54.4369 6.94824C43.2698 6.94824 34.217 16.001 34.217 27.1682C34.217 38.3354 43.2698 47.3881 54.4369 47.3881Z" fill="#FFD732" stroke="#FF874B" stroke-miterlimit="10"/>
<path d="M54.4369 52.3364C68.3369 52.3364 79.6051 41.0682 79.6051 27.1682C79.6051 13.2682 68.3369 2 54.4369 2C40.5369 2 29.2687 13.2682 29.2687 27.1682C29.2687 41.0682 40.5369 52.3364 54.4369 52.3364Z" fill="#FFAF0A" stroke="#322864" stroke-width="2.5" stroke-miterlimit="10"/>
<path d="M54.4369 47.3881C65.6041 47.3881 74.6569 38.3354 74.6569 27.1682C74.6569 16.001 65.6041 6.94824 54.4369 6.94824C43.2698 6.94824 34.217 16.001 34.217 27.1682C34.217 38.3354 43.2698 47.3881 54.4369 47.3881Z" fill="#FFAF0A" stroke="#EBEBEB" stroke-miterlimit="10"/>
<path d="M47.8005 37C51.5765 37 52.0897 32.5199 54.6559 28.5376C54.5459 29.9599 54.6559 31.2399 54.9492 32.0933C56.0857 35.5422 59.935 35.7911 61.6946 32.3066C64.1508 27.3998 64.884 26.2265 67.3769 22.7064C69.0266 20.3597 67.1203 18.8664 64.9207 19.9331C63.7842 20.502 61.9513 21.8886 59.6417 24.8398C60.0449 22.5998 59.935 18.7953 56.5989 19.0086C54.8392 19.1153 52.5296 21.0709 49.4135 26.0132C49.6702 23.2398 49.7801 21.2486 48.5337 20.2175C47.6172 19.5064 45.6009 19.2575 44.3911 20.7864C43.1813 22.3153 42.8881 25.302 43.0347 28.431C43.2547 35.0089 45.6742 37 47.8005 37Z" fill="#EBEBEB"/>
</svg>
