<svg width="224" height="114" viewBox="0 0 224 114" fill="none" xmlns="http://www.w3.org/2000/svg">
<g clip-path="url(#clip0_2766_16169)">
<path d="M154.976 100.384L152.368 104.469L153.887 99.1516C150.68 95.8178 146.241 93.3789 146.241 93.3789C146.241 93.3789 140.774 102.33 142.245 107.836C143.716 113.343 147.516 114.394 151.569 113.319C155.622 112.244 158.394 109.45 156.922 103.944C156.595 102.718 155.884 101.515 154.976 100.384Z" fill="#121212" fill-opacity="0.12"/>
<path d="M151.526 104.876L151.598 105.147C152.425 108.306 152.549 110.909 151.964 112.921C151.956 112.95 151.946 112.979 151.938 113.008L151.802 112.968L151.671 112.928C152.334 110.748 152.038 107.993 151.318 105.237C151.295 105.148 151.273 105.058 151.247 104.968C150.932 103.805 150.546 102.645 150.125 101.531C150.093 101.444 150.06 101.357 150.026 101.269C149.463 99.8012 148.849 98.4189 148.279 97.2276C148.239 97.1432 148.198 97.0592 148.157 96.9765C147.184 94.9639 146.36 93.538 146.175 93.2231C146.153 93.1843 146.14 93.1632 146.137 93.1582L146.256 93.0879L146.257 93.0862L146.376 93.0156C146.379 93.0206 146.423 93.0912 146.498 93.2236C146.785 93.7174 147.546 95.0623 148.423 96.8699C148.462 96.9516 148.503 97.0356 148.543 97.12C149.007 98.0863 149.498 99.1733 149.965 100.327C150.083 100.617 150.196 100.903 150.303 101.187C150.338 101.274 150.372 101.362 150.403 101.448C150.858 102.653 151.232 103.795 151.526 104.876Z" fill="white"/>
<path d="M148.423 96.8695C148.336 96.9056 148.247 96.942 148.157 96.9761C147.911 97.069 147.661 97.1494 147.407 97.2168C146.324 97.5054 145.191 97.5484 144.09 97.3426C144.052 97.4289 144.014 97.5151 143.976 97.603C145.137 97.8302 146.335 97.79 147.478 97.4855C147.75 97.4135 148.017 97.3273 148.279 97.2272C148.368 97.1935 148.457 97.157 148.543 97.1196C149.261 96.8152 149.928 96.404 150.521 95.9001C150.443 95.8416 150.367 95.7841 150.293 95.7275C149.729 96.1979 149.099 96.5827 148.423 96.8695Z" fill="white"/>
<path d="M150.303 101.187C150.212 101.217 150.119 101.244 150.026 101.269C149.998 101.278 149.969 101.286 149.94 101.293C148.767 101.604 147.536 101.628 146.352 101.363C145.167 101.098 144.065 100.551 143.138 99.7695C143.105 99.863 143.073 99.9566 143.042 100.051C143.999 100.837 145.131 101.383 146.344 101.646C147.556 101.909 148.813 101.88 150.012 101.562C150.05 101.552 150.088 101.542 150.125 101.531C150.219 101.504 150.312 101.477 150.404 101.448C151.824 100.993 153.082 100.139 154.029 98.9902C153.965 98.9224 153.9 98.8546 153.834 98.7871C152.917 99.9123 151.69 100.746 150.303 101.187Z" fill="white"/>
<path d="M151.526 104.876C151.434 104.909 151.341 104.94 151.247 104.969C151.147 105 151.047 105.029 150.946 105.056C149.369 105.472 147.699 105.369 146.186 104.76C144.673 104.152 143.399 103.072 142.554 101.682C142.523 101.807 142.491 101.93 142.462 102.055C143.362 103.426 144.673 104.481 146.209 105.068C147.745 105.655 149.427 105.745 151.017 105.325C151.119 105.298 151.219 105.27 151.318 105.238C151.413 105.21 151.506 105.18 151.598 105.148C153.466 104.493 155.013 103.157 155.928 101.408C155.873 101.316 155.815 101.227 155.756 101.136C154.888 102.883 153.37 104.225 151.526 104.876Z" fill="white"/>
<path d="M141.541 7.36876L138.933 11.4532L140.452 6.13599C137.245 2.80212 132.805 0.363281 132.805 0.363281C132.805 0.363281 127.338 9.31454 128.81 14.8208C130.281 20.327 134.08 21.3781 138.133 20.3031C142.186 19.2281 144.958 16.4341 143.487 10.9279C143.159 9.70231 142.448 8.49912 141.541 7.36876Z" fill="#121212" fill-opacity="0.12"/>
<path d="M138.09 11.8601L138.163 12.1315C138.99 15.2907 139.114 17.8938 138.529 19.905C138.521 19.9345 138.511 19.963 138.503 19.9924L138.367 19.9523L138.236 19.9122C138.898 17.7322 138.603 14.9775 137.882 12.2218C137.86 12.1328 137.837 12.0424 137.812 11.9527C137.497 10.7889 137.11 9.62949 136.69 8.51512C136.658 8.42859 136.624 8.34107 136.591 8.25355C136.028 6.78553 135.413 5.4033 134.844 4.21194C134.804 4.12755 134.763 4.04352 134.722 3.96083C133.749 1.94828 132.925 0.522344 132.739 0.207443C132.718 0.168649 132.705 0.147602 132.702 0.142588L132.82 0.0723256L132.821 0.0706224L132.941 0C132.944 0.00502056 132.987 0.0755297 133.063 0.207938C133.35 0.70173 134.11 2.04668 134.988 3.85427C135.027 3.93597 135.068 4.02001 135.108 4.10439C135.571 5.07072 136.063 6.1577 136.53 7.31148C136.648 7.60109 136.76 7.88775 136.868 8.17144C136.903 8.2586 136.936 8.34613 136.968 8.43265C137.423 9.63722 137.797 10.7797 138.09 11.8601Z" fill="white"/>
<path d="M134.988 3.85489C134.901 3.89096 134.812 3.92737 134.722 3.96145C134.476 4.0544 134.225 4.13474 133.971 4.20216C132.889 4.49075 131.756 4.53375 130.654 4.32798C130.617 4.41421 130.579 4.50045 130.541 4.58839C131.702 4.81559 132.9 4.7754 134.043 4.47088C134.314 4.39888 134.582 4.31264 134.844 4.21255C134.933 4.17882 135.021 4.1424 135.108 4.105C135.825 3.80058 136.492 3.38939 137.086 2.88549C137.008 2.82697 136.932 2.76944 136.858 2.71289C136.294 3.18321 135.664 3.56804 134.988 3.85489Z" fill="white"/>
<path d="M136.868 8.17233C136.776 8.20238 136.684 8.22975 136.591 8.25444C136.563 8.26329 136.533 8.27116 136.505 8.27867C135.332 8.58985 134.1 8.61379 132.916 8.34845C131.732 8.08311 130.629 7.53636 129.703 6.75481C129.67 6.84838 129.637 6.94198 129.606 7.03653C130.564 7.82191 131.696 8.36861 132.908 8.63135C134.12 8.89409 135.378 8.86532 136.577 8.5474C136.614 8.53738 136.652 8.52737 136.69 8.516C136.784 8.48962 136.876 8.46225 136.968 8.43354C138.388 7.97813 139.647 7.1248 140.593 5.97558C140.529 5.90776 140.465 5.83992 140.399 5.77246C139.481 6.89769 138.254 7.73172 136.868 8.17233Z" fill="white"/>
<path d="M138.09 11.8608C137.998 11.8939 137.905 11.9243 137.812 11.9533C137.712 11.9842 137.611 12.0137 137.51 12.0405C135.933 12.4568 134.263 12.3531 132.751 11.7448C131.238 11.1365 129.964 10.0564 129.119 8.66624C129.087 8.79118 129.055 8.91476 129.026 9.03898C129.926 10.4108 131.237 11.4651 132.773 12.0522C134.309 12.6393 135.992 12.7292 137.582 12.3093C137.683 12.2824 137.784 12.2543 137.882 12.2224C137.977 12.1943 138.07 12.1639 138.163 12.1322C140.03 11.4778 141.578 10.141 142.493 8.39237C142.438 8.30046 142.379 8.21096 142.32 8.12012C141.452 9.86755 139.935 11.2093 138.09 11.8608Z" fill="white"/>
<path d="M69.8313 107.24L64.9725 107.262L70.2839 105.662C71.3659 101.171 71.0257 96.1318 71.0257 96.1318C71.0257 96.1318 60.5115 96.3878 56.6569 100.597C52.8022 104.807 53.9682 108.56 57.0668 111.376C60.1653 114.192 64.0231 115.005 67.8777 110.796C68.7357 109.859 69.3672 108.612 69.8313 107.24Z" fill="#121212" fill-opacity="0.12"/>
<path d="M64.173 106.776L63.983 106.983C61.7621 109.384 59.6306 110.895 57.6161 111.492C57.5869 111.501 57.5576 111.508 57.5284 111.517L57.4886 111.381L57.4519 111.25C59.6509 110.627 61.8174 108.89 63.7551 106.797C63.8182 106.73 63.8823 106.662 63.9443 106.592C64.7567 105.699 65.5269 104.749 66.2407 103.794C66.2966 103.72 66.3524 103.645 66.4082 103.57C67.3438 102.304 68.1787 101.042 68.8769 99.9205C68.9266 99.8415 68.9753 99.7615 69.023 99.6825C70.1969 97.7796 70.9555 96.3178 71.1213 95.9923C71.1422 95.953 71.153 95.9308 71.1558 95.9258L71.2791 95.9871L71.2811 95.987L71.4055 96.0492C71.4027 96.0543 71.3667 96.1287 71.2958 96.2639C71.0337 96.7709 70.3092 98.1356 69.2569 99.848C69.209 99.925 69.1603 100.005 69.1106 100.084C68.545 100.995 67.8926 101.994 67.1707 103.009C66.9899 103.264 66.8087 103.514 66.6273 103.757C66.5725 103.834 66.5167 103.909 66.4608 103.983C65.6894 105.015 64.9268 105.946 64.173 106.776Z" fill="white"/>
<path d="M69.2571 99.8482C69.1796 99.7947 69.101 99.7402 69.0233 99.6827C68.8119 99.5269 68.6087 99.3605 68.4145 99.184C67.5858 98.4328 66.9368 97.5059 66.5153 96.4717C66.4222 96.4868 66.329 96.5019 66.2339 96.517C66.6697 97.6132 67.3512 98.5957 68.2264 99.3894C68.4337 99.5778 68.651 99.7551 68.8771 99.9207C68.9538 99.9772 69.0324 100.032 69.1109 100.084C69.7557 100.521 70.4634 100.858 71.2097 101.083C71.2171 100.986 71.2246 100.891 71.2322 100.798C70.5305 100.58 69.8649 100.26 69.2571 99.8482Z" fill="white"/>
<path d="M66.6273 103.757C66.5524 103.697 66.4793 103.634 66.4082 103.57C66.3856 103.551 66.3629 103.53 66.3413 103.511C65.4444 102.696 64.7586 101.676 64.3425 100.54C63.9264 99.404 63.7922 98.1844 63.9514 96.9854C63.8547 97.0085 63.7579 97.0316 63.6613 97.0567C63.5158 98.2841 63.666 99.5284 64.0993 100.686C64.5326 101.845 65.2367 102.883 66.1532 103.716C66.182 103.742 66.2109 103.769 66.2407 103.794C66.3138 103.858 66.3868 103.921 66.4608 103.983C67.6131 104.927 69.014 105.521 70.4961 105.693C70.5186 105.602 70.5411 105.512 70.5626 105.42C69.1164 105.259 67.7487 104.681 66.6273 103.757Z" fill="white"/>
<path d="M64.1733 106.776C64.0955 106.717 64.0196 106.655 63.9446 106.593C63.8644 106.525 63.7852 106.457 63.7079 106.387C62.504 105.29 61.6891 103.834 61.3851 102.238C61.0811 100.641 61.3045 98.989 62.0217 97.5293C61.8991 97.5703 61.7775 97.6103 61.657 97.6532C60.985 99.1492 60.8034 100.818 61.1378 102.423C61.4722 104.028 62.3057 105.486 63.5198 106.592C63.5971 106.663 63.6754 106.732 63.7555 106.797C63.8305 106.862 63.9065 106.923 63.9834 106.984C65.5452 108.195 67.5107 108.77 69.4819 108.591C69.5299 108.496 69.5738 108.398 69.6187 108.3C67.6737 108.517 65.7205 107.97 64.1733 106.776Z" fill="white"/>
<path d="M53.7007 111.038L56.4925 111.038L57.8205 100.31L53.7002 100.31L53.7007 111.038Z" fill="#FFB6B6"/>
<path d="M52.9885 110.13L58.4865 110.13H58.4868C59.416 110.13 60.3072 110.498 60.9642 111.152C61.6213 111.807 61.9905 112.695 61.9905 113.621V113.734L52.9887 113.734L52.9885 110.13Z" fill="#121212"/>
<path d="M31.612 111.038L34.4038 111.038L35.7319 100.31L31.6116 100.31L31.612 111.038Z" fill="#FFB6B6"/>
<path d="M30.8999 110.13L36.3979 110.13H36.3981C37.3274 110.13 38.2185 110.498 38.8756 111.152C39.5327 111.807 39.9018 112.695 39.9019 113.621V113.734L30.9001 113.734L30.8999 110.13Z" fill="#121212"/>
<path d="M36.3467 66.9717L34.465 68.697L32.3443 89.5406L30.9167 106.138L35.2309 106.717L45.6949 78.359L53.3515 106.583L58.5134 106.717L55.0874 69.8756L36.3467 66.9717Z" fill="#2A1C60"/>
<path d="M45.4397 36.1509C48.3997 36.1509 50.7993 33.7603 50.7993 30.8113C50.7993 27.8623 48.3997 25.4717 45.4397 25.4717C42.4797 25.4717 40.0801 27.8623 40.0801 30.8113C40.0801 33.7603 42.4797 36.1509 45.4397 36.1509Z" fill="#FFB9B9"/>
<path d="M42.6967 28.3318C42.6967 28.3318 42.0578 29.7095 44.6137 29.1584C44.6137 29.1584 45.5721 29.7095 45.5721 28.8829C45.5721 28.8829 46.8501 30.2606 47.1696 29.434C47.489 28.6074 48.128 29.7095 48.128 29.7095L48.767 28.3319L49.406 29.1584H51.6424C51.6424 29.1584 52.2814 23.6478 44.6137 24.1989C36.946 24.75 40.7181 33.481 40.7181 33.481C40.7181 33.481 40.7798 31.9137 41.4188 32.7403C42.0578 33.5669 42.6967 28.3318 42.6967 28.3318Z" fill="#2A1C60"/>
<path d="M49.5233 37.8932L41.9656 37.4219L35.2308 39.2017L36.2516 56.4919L34.4651 68.6967C34.4651 68.6967 44.267 74.6661 55.3931 69.968L54.3363 67.1983C54.3363 67.1983 54.3 62.9593 53.4073 62.1295C52.5146 61.2998 52.5857 54.4578 52.5857 54.4578L55.9036 41.7444L49.5233 37.8932Z" fill="#3B19A9"/>
<path d="M37.03 39.7468L35.231 39.2012C35.231 39.2012 32.4291 39.2944 30.9722 42.4699C29.5154 45.6454 28.6045 50.1827 28.6045 50.1827L37.8575 50.516L37.03 39.7468Z" fill="#3B19A9"/>
<path d="M58.5071 70.0589L58.2076 51.3184L54.21 51.9158L55.0929 69.6712C54.7295 69.9684 54.462 70.3657 54.3238 70.8135C54.1856 71.2612 54.1829 71.7396 54.316 72.1889C54.4491 72.6382 54.712 73.0384 55.072 73.3397C55.4321 73.641 55.8732 73.83 56.3404 73.8831C56.8075 73.9361 57.28 73.8509 57.6989 73.638C58.1177 73.4252 58.4644 73.0941 58.6955 72.6862C58.9266 72.2782 59.032 71.8115 58.9985 71.3442C58.965 70.877 58.7941 70.4299 58.5071 70.0589Z" fill="#FFB9B9"/>
<path d="M53.6533 43.377L55.9037 41.7441C55.9037 41.7441 60.2278 45.1133 60.2425 52.5258L54.2101 53.9835L50.7993 49.096L53.6533 43.377Z" fill="#3B19A9"/>
<path d="M175.017 111.028L177.808 111.028L179.136 100.3L175.016 100.3L175.017 111.028Z" fill="#9E616A"/>
<path d="M174.304 110.119L179.802 110.119H179.803C180.732 110.119 181.623 110.487 182.28 111.142C182.937 111.796 183.306 112.684 183.306 113.61V113.723L174.305 113.724L174.304 110.119Z" fill="#121212"/>
<path d="M158.492 108.662L161.154 109.501L165.668 99.6716L161.74 98.4336L158.492 108.662Z" fill="#9E616A"/>
<path d="M158.088 107.583L163.33 109.235L163.331 109.235C164.216 109.514 164.955 110.133 165.383 110.954C165.811 111.776 165.895 112.733 165.614 113.616L165.58 113.724L156.997 111.019L158.088 107.583Z" fill="#121212"/>
<path d="M164.778 62.0312L163.229 66.3843L163.185 89.8849L158.792 105.975L164.185 107.474L170.142 92.303L172.053 78.9772L174.571 92.3804L174.224 108.311H179.883L180.31 83.7618C180.43 76.8672 179.219 70.014 176.743 63.5747L164.778 62.0312Z" fill="#2A1C60"/>
<path d="M162.933 44.3984H172.08L175.901 48.2059L177.043 63.9439L163.229 66.1584L158.792 51.1423L161.209 44.7603L162.933 44.3984Z" fill="#FF500A"/>
<path d="M159.644 51.2919L145.562 46.0133L145.196 43.8313L154.077 36.3447L157.033 38.5535L151.675 44.3978L161.208 44.7597L159.644 51.2919Z" fill="#FF500A"/>
<path d="M155.784 39.4075C157.042 39.4075 158.062 38.3917 158.062 37.1388C158.062 35.8858 157.042 34.8701 155.784 34.8701C154.527 34.8701 153.507 35.8858 153.507 37.1388C153.507 38.3917 154.527 39.4075 155.784 39.4075Z" fill="#9E616A"/>
<path d="M161.066 39.9964L162.095 35.3737C162.462 33.7322 163.468 32.303 164.892 31.4001C166.316 30.4972 168.042 30.1946 169.69 30.5587C171.338 30.9228 172.773 31.9239 173.681 33.3419C174.589 34.76 174.894 36.4789 174.53 38.1211L173.501 42.7438C173.452 42.9643 173.316 43.1564 173.125 43.2778C172.934 43.3992 172.702 43.44 172.481 43.3913L161.716 41.013C161.494 40.9638 161.302 40.8292 161.18 40.6386C161.058 40.448 161.017 40.2171 161.066 39.9964Z" fill="#2A1C60"/>
<path d="M166.855 41.9228C169.434 41.9228 171.525 39.8401 171.525 37.271C171.525 34.7018 169.434 32.6191 166.855 32.6191C164.277 32.6191 162.186 34.7018 162.186 37.271C162.186 39.8401 164.277 41.9228 166.855 41.9228Z" fill="#9E616A"/>
<path d="M160.542 35.4186C160.832 34.1199 161.628 32.989 162.755 32.2741C163.881 31.5592 165.246 31.3186 166.551 31.6053L167.479 31.8103C168.782 32.0999 169.918 32.8928 170.635 34.0151C171.353 35.1375 171.594 36.4976 171.306 37.797L171.286 37.8894L169.325 37.4561L169.071 35.4423L168.522 37.2788L167.508 37.0549L167.38 36.0388L167.103 36.9654L160.521 35.5111L160.542 35.4186Z" fill="#2A1C60"/>
<path d="M165.256 42.341C165.192 42.1965 165.17 42.0367 165.192 41.8802C165.215 41.7236 165.282 41.5767 165.384 41.4562C166.783 39.81 168.926 36.6708 167.571 34.1435L167.474 33.9619L172.78 35.1342L171.013 43.0703L166.004 42.8527C165.954 42.8505 165.903 42.8439 165.854 42.833C165.722 42.8039 165.599 42.7442 165.496 42.6587C165.392 42.5731 165.31 42.4643 165.256 42.341Z" fill="#2A1C60"/>
<path d="M223.729 114H0.271086C0.199311 114 0.130547 113.971 0.0798685 113.921C0.0291896 113.87 0.000732422 113.802 0.000732422 113.73C0.000732422 113.659 0.0291896 113.59 0.0798685 113.539C0.130547 113.489 0.199311 113.46 0.271086 113.46H223.729C223.801 113.46 223.87 113.488 223.921 113.539C223.971 113.59 224 113.658 224 113.73C224 113.802 223.971 113.87 223.921 113.921C223.87 113.972 223.801 114 223.729 114Z" fill="#CACACA"/>
<path d="M112.938 47.125H40.6803C40.1318 47.125 39.5887 47.2326 39.0819 47.4418C38.5751 47.6509 38.1147 47.9574 37.7268 48.3438C37.3389 48.7302 37.0313 49.189 36.8214 49.6938C36.6115 50.1987 36.5034 50.7398 36.5034 51.2863V68.5996C36.5034 69.1461 36.6115 69.6872 36.8214 70.1921C37.0313 70.697 37.3389 71.1557 37.7268 71.5421C38.1147 71.9286 38.5751 72.2351 39.0819 72.4442C39.5887 72.6533 40.1318 72.761 40.6803 72.761H41.7409V75.8889C41.7409 76.0787 41.7974 76.2643 41.9033 76.4221C42.0091 76.5799 42.1596 76.7029 42.3356 76.7755C42.5116 76.8482 42.7053 76.8672 42.8921 76.8301C43.079 76.7931 43.2506 76.7017 43.3853 76.5675L47.2061 72.761H112.938C113.487 72.761 114.03 72.6533 114.537 72.4442C115.044 72.2351 115.504 71.9286 115.892 71.5421C116.28 71.1557 116.588 70.697 116.797 70.1921C117.007 69.6872 117.115 69.1461 117.115 68.5996V51.2863C117.115 50.7398 117.007 50.1987 116.797 49.6938C116.588 49.189 116.28 48.7302 115.892 48.3438C115.504 47.9574 115.044 47.6509 114.537 47.4418C114.03 47.2326 113.487 47.125 112.938 47.125Z" fill="#121212" fill-opacity="0.04"/>
<path d="M95.5603 70.6057H40.6804C40.1465 70.6051 39.6347 70.3935 39.2572 70.0174C38.8797 69.6413 38.6673 69.1314 38.6667 68.5995V51.2863C38.6674 50.7545 38.8797 50.2446 39.2572 49.8685C39.6347 49.4924 40.1465 49.2809 40.6803 49.2803H112.938C113.472 49.2809 113.984 49.4924 114.362 49.8685C114.739 50.2446 114.951 50.7545 114.952 51.2864C114.946 56.4084 112.901 61.319 109.266 64.9408C105.631 68.5626 100.702 70.5999 95.5603 70.6057Z" fill="white"/>
<path d="M92.1424 53.0234H61.6283C60.8737 53.0234 60.262 53.6329 60.262 54.3846V54.3846C60.262 55.1364 60.8737 55.7458 61.6283 55.7458H92.1424C92.897 55.7458 93.5087 55.1364 93.5087 54.3846C93.5087 53.6329 92.897 53.0234 92.1424 53.0234Z" fill="#FF500A"/>
<path d="M98.6323 58.4688H55.1383C54.3837 58.4688 53.772 59.0782 53.772 59.8299V59.83C53.772 60.5817 54.3837 61.1912 55.1383 61.1912H98.6323C99.3869 61.1912 99.9986 60.5817 99.9986 59.8299C99.9986 59.0782 99.3869 58.4688 98.6323 58.4688Z" fill="#121212" fill-opacity="0.12"/>
<path d="M98.6323 63.9131H55.1383C54.3837 63.9131 53.772 64.5225 53.772 65.2743V65.2743C53.772 66.0261 54.3837 66.6355 55.1383 66.6355H98.6323C99.3869 66.6355 99.9986 66.0261 99.9986 65.2743C99.9986 64.5225 99.3869 63.9131 98.6323 63.9131Z" fill="#121212" fill-opacity="0.12"/>
<path d="M215.885 59.1797H163.63C163.234 59.1797 162.841 59.2575 162.474 59.4088C162.108 59.56 161.775 59.7817 161.494 60.0611C161.214 60.3405 160.991 60.6723 160.84 61.0374C160.688 61.4025 160.61 61.7938 160.61 62.189V74.7094C160.61 75.1046 160.688 75.4959 160.84 75.861C160.991 76.2261 161.214 76.5578 161.494 76.8373C161.775 77.1167 162.108 77.3384 162.474 77.4896C162.841 77.6409 163.234 77.7187 163.63 77.7187H164.397V79.9807C164.397 80.118 164.438 80.2522 164.515 80.3663C164.591 80.4804 164.7 80.5694 164.827 80.6219C164.955 80.6744 165.095 80.6882 165.23 80.6614C165.365 80.6346 165.489 80.5685 165.586 80.4714L168.349 77.7187H215.885C216.281 77.7187 216.674 77.6409 217.041 77.4896C217.407 77.3384 217.74 77.1167 218.021 76.8373C218.301 76.5579 218.524 76.2261 218.675 75.861C218.827 75.4959 218.905 75.1046 218.905 74.7094V62.189C218.905 61.7938 218.827 61.4025 218.675 61.0374C218.524 60.6723 218.301 60.3405 218.021 60.0611C217.74 59.7817 217.407 59.56 217.041 59.4088C216.674 59.2575 216.281 59.1797 215.885 59.1797Z" fill="#121212" fill-opacity="0.04"/>
<path d="M215.885 76.1928H163.63C163.236 76.1923 162.857 76.0361 162.579 75.7582C162.3 75.4803 162.143 75.1036 162.142 74.7106V62.1902C162.143 61.7972 162.3 61.4205 162.579 61.1426C162.857 60.8647 163.236 60.7084 163.63 60.708H203.317C207.044 60.7122 210.616 62.1889 213.251 64.814C215.886 67.439 217.368 70.9982 217.372 74.7106C217.372 75.1036 217.215 75.4803 216.936 75.7582C216.657 76.0361 216.279 76.1923 215.885 76.1928Z" fill="white"/>
<path d="M200.846 63.4453H178.779C178.233 63.4453 177.791 63.886 177.791 64.4297C177.791 64.9733 178.233 65.4141 178.779 65.4141H200.846C201.391 65.4141 201.834 64.9733 201.834 64.4297C201.834 63.886 201.391 63.4453 200.846 63.4453Z" fill="#FF500A"/>
<path d="M205.539 67.3828H174.086C173.54 67.3828 173.098 67.8235 173.098 68.3672C173.098 68.9108 173.54 69.3516 174.086 69.3516H205.539C206.085 69.3516 206.527 68.9108 206.527 68.3672C206.527 67.8235 206.085 67.3828 205.539 67.3828Z" fill="#121212" fill-opacity="0.12"/>
<path d="M205.539 71.3213H174.086C173.54 71.3213 173.098 71.762 173.098 72.3057C173.098 72.8493 173.54 73.29 174.086 73.29H205.539C206.085 73.29 206.527 72.8493 206.527 72.3057C206.527 71.762 206.085 71.3213 205.539 71.3213Z" fill="#121212" fill-opacity="0.12"/>
<path d="M104.423 15.168H156.678C157.075 15.168 157.467 15.2458 157.834 15.397C158.2 15.5483 158.533 15.7699 158.814 16.0494C159.094 16.3288 159.317 16.6606 159.469 17.0257C159.62 17.3908 159.698 17.7821 159.698 18.1773V30.6977C159.698 31.0929 159.62 31.4842 159.469 31.8493C159.317 32.2144 159.094 32.5461 158.814 32.8256C158.533 33.105 158.2 33.3267 157.834 33.4779C157.467 33.6291 157.075 33.707 156.678 33.707H155.911V35.969C155.911 36.1063 155.87 36.2404 155.794 36.3546C155.717 36.4687 155.608 36.5576 155.481 36.6102C155.354 36.6627 155.214 36.6764 155.078 36.6497C154.943 36.6229 154.819 36.5568 154.722 36.4597L151.959 33.707H104.423C104.027 33.707 103.634 33.6291 103.267 33.4779C102.901 33.3267 102.568 33.105 102.288 32.8256C102.007 32.5461 101.785 32.2144 101.633 31.8493C101.481 31.4842 101.403 31.0929 101.403 30.6977V18.1773C101.403 17.7821 101.481 17.3908 101.633 17.0257C101.785 16.6606 102.007 16.3288 102.288 16.0494C102.568 15.7699 102.901 15.5483 103.267 15.397C103.634 15.2458 104.027 15.168 104.423 15.168Z" fill="#121212" fill-opacity="0.04"/>
<path d="M156.678 32.18H116.991C113.265 32.1758 109.692 30.6992 107.057 28.0742C104.422 25.4491 102.94 21.89 102.936 18.1776C102.936 17.7846 103.093 17.4079 103.372 17.13C103.651 16.8521 104.029 16.6958 104.424 16.6953H156.678C157.072 16.6957 157.451 16.852 157.729 17.1299C158.008 17.4078 158.165 17.7845 158.166 18.1775V30.6978C158.165 31.0908 158.008 31.4675 157.729 31.7454C157.451 32.0232 157.072 32.1795 156.678 32.18Z" fill="white"/>
<path d="M119.463 21.4023L141.529 21.4023C142.075 21.4023 142.517 20.9616 142.517 20.418C142.517 19.8743 142.075 19.4336 141.529 19.4336L119.463 19.4336C118.917 19.4336 118.474 19.8743 118.474 20.418C118.474 20.9616 118.917 21.4023 119.463 21.4023Z" fill="#FF500A"/>
<path d="M114.769 25.3398L146.223 25.3398C146.768 25.3398 147.211 24.8991 147.211 24.3555C147.211 23.8118 146.768 23.3711 146.223 23.3711L114.769 23.3711C114.224 23.3711 113.781 23.8118 113.781 24.3555C113.781 24.8991 114.224 25.3398 114.769 25.3398Z" fill="#121212" fill-opacity="0.12"/>
<path d="M114.769 29.2773L146.223 29.2773C146.768 29.2773 147.211 28.8366 147.211 28.293C147.211 27.7493 146.768 27.3086 146.223 27.3086L114.769 27.3086C114.224 27.3086 113.781 27.7493 113.781 28.293C113.781 28.8366 114.224 29.2773 114.769 29.2773Z" fill="#121212" fill-opacity="0.12"/>
<path d="M44.203 46.7805C44.203 46.1488 43.9511 45.5429 43.5027 45.0961C43.0543 44.6494 42.4461 44.3984 41.812 44.3984C41.1778 44.3984 40.5696 44.6494 40.1212 45.0961C39.6728 45.5429 39.4209 46.1488 39.4209 46.7805C39.4209 46.8038 39.4237 46.8263 39.4244 46.8494L35.2308 51.0273L35.5497 50.297L30.7677 50.0701L30.07 55.1002C30.0089 55.5646 30.094 56.0364 30.3136 56.4505C30.5331 56.8646 30.8763 57.2006 31.2957 57.4121C31.7152 57.6236 32.1902 57.7002 32.6551 57.6312C33.1201 57.5623 33.5521 57.3512 33.8915 57.0272L42.1578 49.1349C42.7256 49.0526 43.2448 48.7694 43.6203 48.3371C43.9958 47.9048 44.2027 47.3523 44.203 46.7805Z" fill="#FFB9B9"/>
<path d="M171.716 44.4932L186.612 46.6033L187.444 48.6541L180.405 57.8815L177.038 56.364L180.996 49.501L171.611 51.208L171.716 44.4932Z" fill="#FF500A"/>
<path d="M178.328 60.5061C179.586 60.5061 180.606 59.4904 180.606 58.2374C180.606 56.9845 179.586 55.9688 178.328 55.9688C177.071 55.9688 176.051 56.9845 176.051 58.2374C176.051 59.4904 177.071 60.5061 178.328 60.5061Z" fill="#9E616A"/>
</g>
<defs>
<clipPath id="clip0_2766_16169">
<rect width="224" height="114" fill="white"/>
</clipPath>
</defs>
</svg>
