<svg width="64" height="64" viewBox="0 0 64 64" fill="none" xmlns="http://www.w3.org/2000/svg">
<g clip-path="url(#clip0_4498_4008)">
<g opacity="0.4">
<path d="M15.923 21.0317C18.9366 21.3574 21.944 21.437 24.9453 21.3094C28.9611 21.1387 31.0623 16.7639 29.0396 13.3275C27.0063 9.87338 21.9945 9.46521 18.98 12.1265C13.432 17.0244 7.14219 21.1503 2.49032 26.9872C0.0644631 30.0282 -0.967651 33.8146 1.13426 37.3775C2.89716 40.3589 7.43997 42.759 10.9206 41.313C19.6485 37.6877 28.9941 35.8472 37.6153 32.1354C41.784 30.3407 42.692 25.1743 39.9147 21.6131C37.0749 17.9718 31.6446 17.5931 28.5144 20.9936C22.2896 27.7559 16.7767 34.9738 11.7794 42.8186C9.73777 46.0162 10.4836 50.5852 13.1355 53.2089C16.036 56.0785 20.0967 56.1456 23.6375 54.5506C32.6725 50.47 41.8308 46.3669 50.5716 41.6146C54.3699 39.5495 54.9706 34.4858 51.9061 31.4538C48.891 28.4708 43.7748 28.9365 40.9115 32.0625C35.2774 38.2137 28.6644 44.08 26.1538 52.5753C24.519 58.1133 29.0015 63.2116 34.5087 63.4278C38.2077 63.5768 41.8842 60.8861 44.9655 59.1345C49.0563 56.8089 53.4033 54.23 57.6297 52.5083C61.9541 50.7492 65.0278 46.8137 63.6793 41.9614C62.5568 37.9141 57.3736 34.2022 53.019 35.9762C48.1296 37.9663 43.4588 40.262 38.8632 42.8335C37.2133 43.7577 35.5785 44.7044 33.9286 45.636C33.3184 45.9789 32.678 46.292 32.0829 46.6572C31.1157 47.2484 31.3458 47.2113 31.9701 47.0014C33.5576 46.4675 35.097 47.0474 36.1135 48.3667C38.9118 51.9991 45.981 51.4712 49.109 48.1125C49.5108 47.6811 49.9122 47.2574 50.3069 46.8435C54.1114 42.8559 57.9763 38.9427 61.0199 34.3289C65.7888 27.1064 56.3942 18.1845 49.1693 22.6045C40.845 27.6932 31.9678 31.9856 23.0529 36.0682C19.1127 37.8726 18.1704 42.9998 21.2404 46.0372C24.0629 48.8296 28.7672 48.2998 31.0763 45.0787C35.7388 38.5746 40.7723 32.8038 46.8414 26.9126C53.7423 20.2118 44.747 8.08485 36.3394 13.4515C29.26 17.9709 21.1125 19.8243 13.1901 22.3425C9.4987 23.5159 8.04618 27.7494 9.99728 31.0643C12.2783 34.9394 17.9237 35.4154 21.3426 32.4712C26.6958 27.8611 32.6247 23.8499 37.0626 18.2813C42.5547 11.3943 37.4845 2.55431 28.6324 3.95558C25.747 4.41025 19.8857 4.34316 15.9305 3.91086C11.2747 3.40402 7.26675 8.21156 7.26675 12.4825C7.25918 17.5137 11.252 20.5249 15.923 21.0317Z" fill="#FFD9CA"/>
</g>
<path d="M60.8993 44.9505L60.8691 48.6847C60.8466 51.4276 58.0741 54.4612 54.4278 56.5333C47.0899 60.6924 35.1565 60.6253 27.8187 56.3768C24.1271 54.2376 22.2964 51.4425 22.3191 48.6698L22.3491 44.9355C22.3266 47.7157 24.1572 50.5108 27.8488 52.6426C35.1866 56.8911 47.1201 56.9581 54.4579 52.799C58.1043 50.727 60.8766 47.6933 60.8993 44.9505Z" fill="#5A1D30"/>
<path d="M54.4655 37.5412C47.1277 33.2927 35.1942 33.2257 27.8564 37.3847C20.5186 41.5438 20.5186 48.3862 27.8564 52.6347C35.1942 56.8833 47.1277 56.9504 54.4655 52.7913C61.7959 48.6322 61.7959 41.7898 54.4655 37.5412Z" fill="#FFAF0A" stroke="#5A1D30" stroke-width="2.5266" stroke-miterlimit="10"/>
<path d="M52.1526 38.8534C58.2098 42.364 58.2098 48.0139 52.1526 51.4574C46.088 54.8935 36.2263 54.8339 30.1692 51.3307C24.1121 47.8201 24.1045 42.1702 30.1692 38.7341C36.2263 35.2906 46.0956 35.3427 52.1526 38.8534Z" fill="#FFAF0A" stroke="#EBEBEB" stroke-width="1.01064" stroke-miterlimit="10"/>
<path d="M52.2132 46.6499C52.5296 46.9778 52.3714 47.3281 51.8441 47.5592C51.505 47.7083 51.1133 47.7902 50.6989 47.835C50.0435 47.9095 49.388 47.984 48.7326 48.0586C47.1053 48.2449 45.5232 48.4983 43.9487 48.7965C43.1124 48.953 42.2837 49.117 41.455 49.281C40.8674 49.3928 40.2647 49.445 39.6394 49.4002C39.1196 49.3629 38.6299 49.2586 38.2231 49.0723C38.208 49.0648 38.1929 49.0574 38.1703 49.0499C38.0046 48.9605 37.9819 48.9456 37.9594 48.9307C37.9292 48.9157 37.9067 48.9008 37.8916 48.8859C37.8614 48.8636 37.8388 48.8487 37.8237 48.8338C37.7937 48.8114 37.7786 48.7965 37.7559 48.7815C37.7334 48.7666 37.7183 48.7517 37.7032 48.7368C37.6806 48.7145 37.6655 48.6996 37.6505 48.6847C37.6279 48.6623 37.6128 48.6474 37.5977 48.6325C37.5752 48.6101 37.5601 48.5952 37.5525 48.5729C37.5374 48.558 37.5224 48.5356 37.5149 48.5207C37.4998 48.4983 37.4847 48.4834 37.4772 48.4611C37.4622 48.4313 37.4546 48.4163 37.4395 48.4014C37.4245 48.3791 37.4169 48.3567 37.4094 48.3418C37.4019 48.3195 37.3943 48.3045 37.3868 48.2822C37.3792 48.2524 37.3717 48.2375 37.3642 48.2226C37.3567 48.1927 37.3491 48.1778 37.3491 48.1554C37.3416 48.1256 37.3416 48.1108 37.334 48.0884C37.2813 47.7232 37.4395 47.3803 37.7107 47.0523C37.9067 46.8212 38.1628 46.6126 38.4491 46.4188C38.8182 46.1654 39.2251 45.9343 39.662 45.7107C39.6921 45.6958 39.7223 45.6734 39.7675 45.6511C39.6921 45.6362 39.6394 45.6511 39.5866 45.6585C38.999 45.7405 38.4189 45.8374 37.8464 45.9566C36.9875 46.1281 36.1287 46.3144 35.2699 46.4859C34.6596 46.6126 34.0418 46.7094 33.3939 46.7542C32.9343 46.784 32.4898 46.784 32.0454 46.7169C31.5934 46.6499 31.2016 46.5232 30.8475 46.3442C30.8249 46.3293 30.8023 46.3219 30.7797 46.307C30.742 46.2846 30.727 46.2772 30.7119 46.2697C30.6366 46.225 30.6215 46.2175 30.6065 46.2026C30.5763 46.1877 30.5612 46.1728 30.5462 46.1579C30.516 46.1356 30.5085 46.1281 30.4935 46.1207C30.0791 45.6883 30.0715 45.6809 30.0715 45.666C30.049 45.6287 30.0339 45.5989 30.0188 45.5691C30.0113 45.5467 30.0038 45.5393 29.9962 45.5244C29.9209 45.0175 29.9209 45.0026 29.9209 44.9951C29.9209 44.9653 29.9284 44.9504 29.9284 44.9281C29.9811 44.5554 30.177 44.2051 30.4482 43.8697C30.7496 43.497 31.1263 43.1467 31.5406 42.8112C32.1433 42.3342 32.8213 41.8945 33.537 41.477C34.0192 41.1938 34.5164 40.9181 35.0438 40.6646C35.6616 40.359 36.317 40.0758 37.0402 39.8447C37.4094 39.7255 37.7937 39.636 38.2004 39.5764C38.66 39.5018 39.1271 39.487 39.5791 39.569C39.6469 39.5839 39.7072 39.5913 39.7675 39.6062C39.903 39.636 39.9257 39.6434 39.9483 39.6509C40.0387 39.6733 40.0538 39.6807 40.0763 39.6882C40.099 39.6957 40.1215 39.7031 40.1366 39.7106C40.1667 39.718 40.1893 39.7255 40.2044 39.7329C40.2345 39.7404 40.2572 39.7478 40.2722 39.7553C40.2948 39.7627 40.3099 39.7702 40.325 39.7776C41.1838 40.4559 41.1989 40.4857 41.2139 40.5155C41.3571 40.7839 41.2667 41.0448 41.0708 41.2982C40.9427 41.4696 40.7544 41.6187 40.551 41.7678C40.1517 42.051 39.6846 42.3044 39.2024 42.5355C38.9312 42.6696 38.66 42.8038 38.3888 42.9305L38.3059 42.9753C38.3888 42.9827 38.4566 42.9753 38.5169 42.9678C39.6695 42.8112 40.8147 42.6845 41.9899 42.6026C42.8186 42.5429 43.6473 42.5131 44.4836 42.5504C44.9959 42.5727 45.5006 42.6249 45.9828 42.7367C46.0129 42.7442 46.0356 42.7516 46.0657 42.7591C46.1108 42.774 46.141 42.7814 46.1636 42.7889C46.2013 42.7963 46.2238 42.8038 46.2465 42.8112C46.2917 42.8261 46.3143 42.8336 46.3369 42.8411C46.3745 42.856 46.3971 42.8634 46.4122 42.8709C46.4499 42.8858 46.4725 42.8932 46.4951 42.9007C46.5328 42.9156 46.5478 42.923 46.5704 42.9305C46.6081 42.9454 46.6232 42.9529 46.6458 42.9678C46.6834 42.9827 46.6985 42.9976 46.7211 43.0051C46.7512 43.0199 46.7663 43.0274 46.7889 43.0423C46.819 43.0646 46.8416 43.0721 46.8567 43.0796C46.8868 43.0945 46.9019 43.1094 46.9245 43.1243C46.9547 43.1466 46.9697 43.1541 46.9848 43.1615C47.0149 43.1839 47.0375 43.1988 47.0526 43.2063C47.0752 43.2287 47.0902 43.2361 47.1053 43.251C47.1355 43.2734 47.1505 43.2883 47.1656 43.3032C47.482 43.5865 47.5573 43.892 47.4217 44.22C47.3162 44.4734 47.1053 44.697 46.8492 44.9057C46.4725 45.2113 46.0129 45.4796 45.5006 45.7181C45.3273 45.8001 45.1466 45.8747 44.9733 45.9566C44.9582 45.9641 44.9431 45.979 44.8979 46.0014C44.9808 45.9939 45.0335 45.9939 45.0787 45.9865C46.0883 45.912 47.0902 45.8597 48.0998 45.8597C48.8381 45.8597 49.5764 45.8896 50.2996 45.9715C50.7064 46.0238 51.0982 46.0834 51.4598 46.2026C51.4824 46.2101 51.505 46.2175 51.5201 46.225C52.1906 46.6275 52.1981 46.635 52.2132 46.6499Z" fill="#EBEBEB"/>
<path d="M52.4766 39.144L52.4464 42.8783C52.4239 45.6213 49.8775 48.6399 46.2311 50.7046C38.8933 54.8637 26.9598 54.7966 19.622 50.548C15.9304 48.4089 13.2409 45.651 13.2711 42.8708L13.256 39.144C13.2334 41.9242 15.9682 44.6746 19.6596 46.8138C26.9975 51.0623 38.9309 51.1294 46.2688 46.9703C49.9076 44.9057 52.454 41.887 52.4766 39.144Z" fill="#5A1D30"/>
<path d="M46.2688 31.7199C38.9309 27.4714 26.9975 27.4044 19.6596 31.5635C12.3218 35.7225 12.3218 42.5649 19.6596 46.8134C26.9975 51.062 38.9309 51.1291 46.2688 46.97C53.5991 42.8109 53.5991 35.9685 46.2688 31.7199Z" fill="#FFAF0A" stroke="#5A1D30" stroke-width="2.5266" stroke-miterlimit="10"/>
<path d="M43.9559 33.032C50.0129 36.5426 50.0129 42.1925 43.9559 45.636C37.8912 49.0721 28.0296 49.0125 21.9724 45.5093C15.9153 41.9986 15.9078 36.3489 21.9724 32.9128C28.0296 29.4617 37.8912 29.5214 43.9559 33.032Z" fill="#FFAF0A" stroke="#EBEBEB" stroke-width="1.01064" stroke-miterlimit="10"/>
<path d="M44.0086 40.8207C44.325 41.1487 44.1668 41.499 43.6395 41.7301C43.3004 41.8791 42.9087 41.9612 42.4943 42.0058C41.8389 42.0804 41.1835 42.1549 40.528 42.2295C38.9007 42.4158 37.3186 42.6693 35.7441 42.9674C34.9079 43.1239 34.0791 43.2879 33.2504 43.4519C32.6628 43.5637 32.0601 43.6158 31.4348 43.5711C30.915 43.5339 30.4253 43.4295 30.0185 43.2431C30.0034 43.2357 29.9883 43.2282 29.9657 43.2208C29.8 43.1313 29.7773 43.1164 29.7548 43.1015C29.7246 43.0866 29.7021 43.0717 29.687 43.0568C29.6568 43.0345 29.6342 43.0196 29.6191 43.0046C29.5891 42.9823 29.574 42.9674 29.5514 42.9525C29.5288 42.9376 29.5137 42.9227 29.4986 42.9078C29.476 42.8854 29.4609 42.8705 29.4459 42.8556C29.4233 42.8332 29.4082 42.8183 29.3931 42.8034C29.3706 42.7811 29.3555 42.7661 29.3479 42.7437C29.3329 42.7289 29.3178 42.7065 29.3103 42.6916C29.2952 42.6693 29.2801 42.6543 29.2726 42.6319C29.2576 42.6021 29.25 42.5872 29.2349 42.5724C29.2199 42.55 29.2124 42.5276 29.2048 42.5127C29.1973 42.4903 29.1897 42.4754 29.1822 42.4531C29.1746 42.4233 29.1671 42.4084 29.1596 42.3934C29.1521 42.3636 29.1446 42.3487 29.1446 42.3264C29.137 42.2966 29.137 42.2816 29.1295 42.2593C29.0767 41.894 29.2349 41.5512 29.5061 41.2233C29.7021 40.9922 29.9582 40.7835 30.2445 40.5897C30.6136 40.3363 31.0205 40.1052 31.4574 39.8816C31.4875 39.8667 31.5177 39.8443 31.5629 39.8219C31.4875 39.8071 31.4348 39.8219 31.382 39.8294C30.7944 39.9114 30.2143 40.0083 29.6418 40.1276C28.7829 40.299 27.9241 40.4854 27.0653 40.6568C26.455 40.7835 25.8372 40.8804 25.1893 40.9251C24.7297 40.9549 24.2853 40.9549 23.8408 40.8878C23.3888 40.8207 22.997 40.694 22.6429 40.5152C22.6204 40.5003 22.5977 40.4928 22.5751 40.4779C22.5374 40.4555 22.5224 40.448 22.5073 40.4406C22.432 40.3959 22.4169 40.3885 22.4019 40.3736C22.3717 40.3586 22.3567 40.3437 22.3416 40.3288C22.3114 40.3064 22.3039 40.299 22.2889 40.2915C21.8745 39.8592 21.8669 39.8518 21.8669 39.8368C21.8444 39.7996 21.8293 39.7698 21.8142 39.74C21.8067 39.7176 21.7992 39.7101 21.7916 39.6952C21.7163 39.1884 21.7163 39.1735 21.7163 39.1661C21.7163 39.1363 21.7238 39.1213 21.7238 39.0989C21.7765 38.7263 21.9724 38.3759 22.2437 38.0406C22.545 37.6679 22.9217 37.3176 23.3361 36.9822C23.9388 36.5051 24.6167 36.0653 25.3324 35.648C25.8146 35.3647 26.3119 35.0889 26.8392 34.8355C27.457 34.53 28.1124 34.2467 28.8357 34.0156C29.2048 33.8964 29.5891 33.807 29.9958 33.7473C30.4554 33.6728 30.9225 33.6578 31.3745 33.7398C31.4423 33.7547 31.5026 33.7622 31.5629 33.7771C31.6985 33.807 31.7211 33.8144 31.7437 33.8218C31.8341 33.8442 31.8492 33.8516 31.8717 33.8591C31.8944 33.8665 31.9169 33.874 31.932 33.8814C31.9622 33.8889 31.9848 33.8964 31.9998 33.9038C32.0299 33.9113 32.0526 33.9188 32.0677 33.9262C32.0902 33.9337 32.1053 33.9411 32.1204 33.9485C32.9792 34.6268 32.9943 34.6567 33.0093 34.6864C33.1525 34.9548 33.0621 35.2156 32.8662 35.469C32.7381 35.6405 32.5498 35.7896 32.3464 35.9386C31.9471 36.2219 31.48 36.4753 30.9978 36.7064C30.7266 36.8406 30.4554 36.9747 30.1842 37.1014L30.1013 37.1461C30.1842 37.1536 30.252 37.1461 30.3123 37.1387C31.465 36.9822 32.6101 36.8555 33.7853 36.7734C34.614 36.7138 35.4427 36.684 36.279 36.7213C36.7913 36.7436 37.296 36.7958 37.7782 36.9076C37.8083 36.915 37.831 36.9225 37.8611 36.93C37.9063 36.9449 37.9364 36.9524 37.959 36.9598C37.9967 36.9673 38.0193 36.9747 38.0419 36.9822C38.0871 36.9971 38.1097 37.0045 38.1323 37.012C38.17 37.0268 38.1925 37.0343 38.2076 37.0417C38.2453 37.0567 38.2679 37.0641 38.2905 37.0716C38.3282 37.0865 38.3432 37.094 38.3658 37.1014C38.4035 37.1163 38.4186 37.1238 38.4412 37.1387C38.4788 37.1536 38.4939 37.1685 38.5165 37.1759C38.5467 37.1909 38.5617 37.1983 38.5843 37.2132C38.6144 37.2356 38.637 37.243 38.6521 37.2505C38.6822 37.2654 38.6973 37.2803 38.7199 37.2952C38.7501 37.3176 38.7652 37.325 38.7802 37.3325C38.8103 37.3548 38.8329 37.3697 38.848 37.3772C38.8706 37.3995 38.8857 37.407 38.9007 37.4219C38.9309 37.4443 38.9459 37.4592 38.961 37.4741C39.2774 37.7573 39.3528 38.0629 39.2171 38.3909C39.1116 38.6443 38.9007 38.8679 38.6446 39.0766C38.2679 39.3822 37.8083 39.6506 37.296 39.8891C37.1228 39.971 36.942 40.0456 36.7687 40.1276C36.7536 40.135 36.7386 40.1499 36.6933 40.1723C36.7762 40.1648 36.829 40.1648 36.8741 40.1574C37.8837 40.0828 38.8856 40.0307 39.8952 40.0307C40.6335 40.0307 41.3718 40.0605 42.095 40.1425C42.5019 40.1946 42.8936 40.2543 43.2552 40.3736C43.2778 40.381 43.3004 40.3885 43.3155 40.3959C43.9935 40.7984 44.001 40.8133 44.0086 40.8207Z" fill="#EBEBEB"/>
<path d="M61.7282 32.0256V35.6853C61.7056 38.4283 58.9181 41.6706 55.2718 43.7427C47.934 47.9018 36.0005 47.8347 28.6627 43.5861C24.9711 41.447 22.4624 37.5114 22.485 34.7313L22.3268 31.0566C22.3042 33.8368 25.0012 37.7127 28.6928 39.8519C36.0306 44.1005 47.9641 44.1675 55.3019 40.0084C58.9482 37.9363 61.7056 34.7686 61.7282 32.0256Z" fill="#5A1D30"/>
<path d="M55.3093 24.7512C47.9715 20.5027 36.038 20.4356 28.7002 24.5947C21.3623 28.7538 21.3623 35.5962 28.7002 39.8447C36.038 44.0933 47.9715 44.1604 55.3093 40.0013C62.6397 35.8421 62.6397 28.9998 55.3093 24.7512Z" fill="#FFAF0A" stroke="#5A1D30" stroke-width="2.5266" stroke-miterlimit="10"/>
<path d="M53.2074 25.4369C59.2644 28.9475 59.2644 34.5974 53.2074 38.0409C47.1427 41.477 37.281 41.4174 31.2239 37.9142C25.1667 34.4035 25.1592 28.7538 31.2239 25.3176C37.281 21.8741 47.1427 21.9262 53.2074 25.4369Z" fill="#FFAF0A" stroke="#EBEBEB" stroke-width="1.01064" stroke-miterlimit="10"/>
<path d="M53.0492 33.852C53.3656 34.18 53.2073 34.5303 52.68 34.7613C52.341 34.9104 51.9492 34.9924 51.5349 35.0371C50.8795 35.1116 50.2241 35.1862 49.5686 35.2607C47.9413 35.447 46.3592 35.7004 44.7847 35.9986C43.9484 36.1551 43.1197 36.3191 42.291 36.4831C41.7034 36.5949 41.1007 36.6471 40.4754 36.6024C39.9556 36.5651 39.4659 36.4607 39.059 36.2744C39.0439 36.2669 39.0289 36.2595 39.0063 36.252C38.8405 36.1626 38.8179 36.1477 38.7954 36.1328C38.7652 36.1179 38.7426 36.103 38.7275 36.088C38.6974 36.0657 38.6748 36.0508 38.6597 36.0359C38.6296 36.0135 38.6145 35.9986 38.592 35.9837C38.5693 35.9688 38.5542 35.9539 38.5392 35.9389C38.5166 35.9166 38.5015 35.9017 38.4865 35.8868C38.4639 35.8645 38.4488 35.8495 38.4337 35.8346C38.4111 35.8122 38.3961 35.7974 38.3885 35.775C38.3735 35.7601 38.3584 35.7378 38.3509 35.7228C38.3358 35.7004 38.3207 35.6855 38.3132 35.6632C38.2981 35.6334 38.2906 35.6185 38.2755 35.6036C38.2605 35.5812 38.2529 35.5588 38.2454 35.5439C38.2379 35.5216 38.2303 35.5067 38.2228 35.4843C38.2152 35.4545 38.2077 35.4396 38.2002 35.4247C38.1927 35.3949 38.1851 35.38 38.1851 35.3576C38.1776 35.3278 38.1776 35.3129 38.17 35.2905C38.1173 34.9253 38.2755 34.5824 38.5467 34.2544C38.7426 34.0234 38.9987 33.8147 39.2851 33.6209C39.6542 33.3675 40.061 33.1364 40.498 32.9128C40.5281 32.8979 40.5583 32.8755 40.6035 32.8532C40.5281 32.8383 40.4753 32.8532 40.4226 32.8607C39.835 32.9427 39.2549 33.0395 38.6824 33.1588C37.8235 33.3302 36.9646 33.5165 36.1058 33.688C35.4956 33.8147 34.8778 33.9116 34.2299 33.9563C33.7703 33.9861 33.3259 33.9861 32.8814 33.9191C32.4294 33.852 32.0376 33.7253 31.6835 33.5464C31.6609 33.5315 31.6383 33.524 31.6157 33.5091C31.578 33.4867 31.563 33.4793 31.5479 33.4718C31.4725 33.4271 31.4575 33.4197 31.4424 33.4047C31.4123 33.3898 31.3973 33.3749 31.3822 33.36C31.352 33.3377 31.3445 33.3302 31.3294 33.3228C30.915 32.8904 30.9075 32.883 30.9075 32.8681C30.8849 32.8309 30.8698 32.801 30.8548 32.7712C30.8473 32.7488 30.8398 32.7414 30.8322 32.7265C30.7568 32.2197 30.7568 32.2047 30.7568 32.1973C30.7568 32.1674 30.7644 32.1525 30.7644 32.1302C30.8171 31.7575 31.013 31.4072 31.2842 31.0718C31.5855 30.6991 31.9622 30.3488 32.3766 30.0134C32.9793 29.5364 33.6573 29.0966 34.373 28.6792C34.8552 28.3959 35.3524 28.1202 35.8798 27.8668C36.4976 27.5611 37.153 27.2779 37.8763 27.0468C38.2454 26.9276 38.6296 26.8381 39.0364 26.7785C39.496 26.704 39.9631 26.6891 40.4151 26.7711C40.4829 26.786 40.5432 26.7934 40.6035 26.8083C40.739 26.8381 40.7616 26.8456 40.7843 26.8531C40.8747 26.8754 40.8897 26.8829 40.9123 26.8903C40.9349 26.8978 40.9575 26.9052 40.9726 26.9127C41.0028 26.9201 41.0253 26.9276 41.0404 26.935C41.0705 26.9425 41.0931 26.9499 41.1082 26.9574C41.1308 26.9649 41.1459 26.9723 41.161 26.9798C42.0198 27.658 42.0349 27.6878 42.0499 27.7177C42.1931 27.986 42.1027 28.2469 41.9068 28.5003C41.7787 28.6717 41.5904 28.8208 41.387 28.9699C40.9877 29.2531 40.5206 29.5065 40.0384 29.7376C39.7672 29.8717 39.496 30.0059 39.2248 30.1326L39.1419 30.1774C39.2248 30.1848 39.2926 30.1774 39.3529 30.1699C40.5055 30.0134 41.6507 29.8867 42.8259 29.8047C43.6546 29.745 44.4833 29.7152 45.3196 29.7525C45.8319 29.7749 46.3366 29.827 46.8188 29.9389C46.8489 29.9463 46.8715 29.9537 46.9016 29.9612C46.9468 29.9761 46.977 29.9835 46.9996 29.991C47.0373 29.9984 47.0598 30.0059 47.0825 30.0134C47.1276 30.0283 47.1503 30.0358 47.1728 30.0432C47.2105 30.0581 47.2331 30.0656 47.2482 30.073C47.2858 30.0879 47.3085 30.0953 47.331 30.1028C47.3688 30.1177 47.3838 30.1252 47.4064 30.1326C47.444 30.1476 47.4591 30.155 47.4818 30.1699C47.5194 30.1848 47.5345 30.1997 47.5571 30.2072C47.5872 30.2221 47.6023 30.2295 47.6249 30.2444C47.655 30.2668 47.6776 30.2743 47.6927 30.2817C47.7228 30.2966 47.7379 30.3115 47.7605 30.3264C47.7906 30.3488 47.8057 30.3562 47.8207 30.3637C47.8509 30.3861 47.8735 30.401 47.8885 30.4084C47.9112 30.4308 47.9262 30.4382 47.9413 30.4531C47.9715 30.4755 47.9865 30.4904 48.0015 30.5053C48.318 30.7886 48.3933 31.0941 48.2577 31.4221C48.1522 31.6755 47.9413 31.8991 47.6852 32.1079C47.3085 32.4134 46.8489 32.6818 46.3366 32.9203C46.1634 33.0023 45.9825 33.0768 45.8092 33.1588C45.7942 33.1662 45.7791 33.1812 45.7339 33.2035C45.8168 33.1961 45.8695 33.1961 45.9147 33.1886C46.9243 33.1141 47.9262 33.0619 48.9357 33.0619C49.6741 33.0619 50.4123 33.0917 51.1356 33.1737C51.5425 33.2259 51.9342 33.2855 52.2958 33.4047C52.3184 33.4122 52.341 33.4197 52.3561 33.4271C53.0341 33.8296 53.0416 33.8445 53.0492 33.852Z" fill="#EBEBEB"/>
<path d="M37.4621 35.6334C47.0277 35.6334 54.7822 27.9614 54.7822 18.4976C54.7822 9.03378 47.0277 1.36182 37.4621 1.36182C27.8966 1.36182 20.1421 9.03378 20.1421 18.4976C20.1421 27.9614 27.8966 35.6334 37.4621 35.6334Z" fill="#FF500A" stroke="#FF500A" stroke-width="1.01064" stroke-miterlimit="10"/>
<path d="M37.4621 32.2645C45.1471 32.2645 51.377 26.1009 51.377 18.4977C51.377 10.8945 45.1471 4.73096 37.4621 4.73096C29.7772 4.73096 23.5474 10.8945 23.5474 18.4977C23.5474 26.1009 29.7772 32.2645 37.4621 32.2645Z" fill="#FFD732" stroke="#FF874B" stroke-width="1.01064" stroke-miterlimit="10"/>
<path d="M37.4621 35.6334C47.0277 35.6334 54.7822 27.9614 54.7822 18.4976C54.7822 9.03378 47.0277 1.36182 37.4621 1.36182C27.8966 1.36182 20.1421 9.03378 20.1421 18.4976C20.1421 27.9614 27.8966 35.6334 37.4621 35.6334Z" fill="#FFAF0A" stroke="#5A1D30" stroke-width="2.5266" stroke-miterlimit="10"/>
<path d="M37.4621 32.2645C45.1471 32.2645 51.377 26.1009 51.377 18.4977C51.377 10.8945 45.1471 4.73096 37.4621 4.73096C29.7772 4.73096 23.5474 10.8945 23.5474 18.4977C23.5474 26.1009 29.7772 32.2645 37.4621 32.2645Z" fill="#FFAF0A" stroke="#EBEBEB" stroke-width="1.01064" stroke-miterlimit="10"/>
<path d="M32.8949 25.1914C35.4934 25.1914 35.8466 22.1411 37.6126 19.4297C37.5369 20.3981 37.6126 21.2696 37.8144 21.8506C38.5965 24.1988 41.2455 24.3683 42.4564 21.9958C44.1467 18.655 44.6513 17.8562 46.3668 15.4595C47.5021 13.8618 46.1902 12.8451 44.6765 13.5713C43.8944 13.9587 42.6331 14.9027 41.0437 16.9121C41.3211 15.387 41.2455 12.7967 38.9497 12.9419C37.7387 13.0145 36.1493 14.346 34.0049 17.711C34.1816 15.8227 34.2572 14.467 33.3994 13.765C32.7687 13.2808 31.3812 13.1114 30.5486 14.1523C29.7161 15.1933 29.5143 17.2268 29.6152 19.3571C29.7666 23.8357 31.4316 25.1914 32.8949 25.1914Z" fill="#EBEBEB"/>
</g>
<defs>
<clipPath id="clip0_4498_4008">
<rect width="64" height="64" fill="white"/>
</clipPath>
</defs>
</svg>
